<svg height="512" viewBox="0 0 512 512" width="512" xmlns="http://www.w3.org/2000/svg">
    <linearGradient id="a" gradientUnits="userSpaceOnUse" x1="215.709" x2="852.345" y1="253.5" y2="253.5">
        <stop offset=".001" stop-color="#fff0d5"/>
        <stop offset=".511" stop-color="#ffdfff"/>
        <stop offset="1" stop-color="#d9ceff"/>
    </linearGradient>
    <path d="M408.228 151.762c-23.697-9.236-43.717-26.089-55.961-48.381-20.59-37.487-60.43-62.898-106.221-62.898-47.53 0-88.646 27.377-108.477 67.219-12.146 24.401-32.814 43.56-58.09 53.762C42.13 176.538 10.776 210.988.826 264.846c-1.092 5.91-1.108 11.986-.016 17.896 15.448 83.573 82.399 120.435 143.334 110.66 34.126-5.474 68.672 5.909 93.967 29.462 51.434 47.892 133.884 62.907 213.923 11.57 9.377-6.014 21.957-18.634 27.966-28.015 68.967-107.671 17.879-219.715-71.772-254.657z" fill="url(#a)"/>
    <path d="M474.5 261.167h-43.52v-96c11.926 0 21.593-9.668 21.593-21.593 0-11.926-9.668-21.593-21.593-21.593-7.991 0-14.951 4.351-18.685 10.803l-21.745-12.553-2.624-1.515c1.625-1.778 2.624-4.137 2.624-6.736V64.184c0-5.523-4.478-10.001-10.001-10.001h-56.086c-5.523 0-10.001 4.477-10.001 10.001v12.118l-.002-.001-39.605-22.863c1.839-3.177 2.908-6.855 2.908-10.79 0-11.926-9.668-21.593-21.593-21.593-11.926 0-21.593 9.668-21.593 21.593 0 3.935 1.069 7.613 2.908 10.79l-137.44 79.346c-3.734-6.451-10.694-10.803-18.685-10.803-11.926 0-21.593 9.668-21.593 21.593 0 11.926 9.667 21.593 21.593 21.593v34.202H44.536c-5.523 0-10.001 4.478-10.001 10.001v47.796c0 5.523 4.477 10.001 10.001 10.001h36.825v56.666c-11.926 0-21.593 9.668-21.593 21.593 0 11.926 9.668 21.593 21.593 21.593 7.99 0 14.95-4.351 18.685-10.803l137.44 79.346c-1.839 3.177-2.908 6.855-2.908 10.79 0 11.926 9.668 21.593 21.593 21.593 11.926 0 21.593-9.668 21.593-21.593 0-3.935-1.069-7.613-2.908-10.79L344.25 395.5l25.983-15H474.5c5.523 0 10-4.477 10-10v-99.333c0-5.522-4.477-10-10-10z" fill="#590bb2" opacity=".1"/>
    <path d="M430.98 161.57v201.859l-86.73 50.07-88.08 50.85-174.809-100.92V161.57L256.17 60.65l58.29 33.65 76.09 43.93z" fill="#ffd5b8"/>
    <path d="M430.98 294.169v69.26l-86.73 50.07H300.5c-5.52 0-10-4.48-10-10v-99.33c0-5.53 4.48-10 10-10zM110.621 239.369v47.8c0 5.52-4.48 10-10 10h-19.26v-67.8h19.26c5.52 0 10 4.48 10 10zM390.55 138.23v3.75c0 5.52-4.48 10-10 10h-56.09c-5.52 0-10-4.48-10-10V94.3z" fill="#ffbe92"/>
    <path d="M256.222 369.999l-125.195-35.248 1.991-143.353L256.17 115.5l122.619 76.206-37.788 119.771z" fill="#d6b0ff"/>
    <circle cx="256.17" cy="60.647" fill="#fdd250" r="21.593"/>
    <circle cx="256.17" cy="464.352" fill="#fdd250" r="21.593"/>
    <circle cx="430.98" cy="161.573" fill="#fdd250" r="21.593"/>
    <circle cx="81.361" cy="161.573" fill="#fdd250" r="21.593"/>
    <circle cx="81.361" cy="363.426" fill="#fdd250" r="21.593"/>
    <path d="M474.5 398.499H300.501c-5.523 0-10-4.477-10-10v-99.333c0-5.523 4.477-10 10-10H474.5c5.523 0 10 4.477 10 10v99.333c0 5.523-4.477 10-10 10z" fill="#f5f4f9"/>
    <path d="M369.877 316.485h-46.742c-2.766 0-5.008-2.242-5.008-5.008s2.242-5.008 5.008-5.008h46.742c2.766 0 5.008 2.242 5.008 5.008 0 2.765-2.241 5.008-5.008 5.008z" fill="#d6b0ff"/>
    <path d="M429.877 352.35H323.135c-2.766 0-5.008-2.242-5.008-5.008s2.242-5.008 5.008-5.008h106.742c2.766 0 5.008 2.242 5.008 5.008s-2.242 5.008-5.008 5.008zM429.877 372.634H323.135c-2.766 0-5.008-2.242-5.008-5.008s2.242-5.008 5.008-5.008h106.742c2.766 0 5.008 2.242 5.008 5.008 0 2.765-2.242 5.008-5.008 5.008z" fill="#ddd9e4"/>
    <path d="M412.837 324.254c-1.279 0-2.559-.488-3.535-1.464-2.34-2.339-6.146-2.339-8.486 0-1.951 1.952-5.118 1.953-7.071 0-.976-.976-1.464-2.256-1.464-3.536 0-1.279.488-2.559 1.465-3.535 1.133-1.133 1.757-2.64 1.757-4.242s-.624-3.109-1.757-4.243c-.977-.977-1.465-2.256-1.465-3.536s.488-2.559 1.465-3.536c1.951-1.952 5.119-1.952 7.07 0 2.34 2.34 6.146 2.34 8.486 0 1.951-1.952 5.119-1.952 7.07 0 .977.977 1.465 2.256 1.465 3.536s-.488 2.559-1.465 3.536c-1.133 1.133-1.757 2.64-1.757 4.243s.624 3.109 1.757 4.242c.977.976 1.465 2.256 1.465 3.535 0 1.28-.488 2.56-1.464 3.536-.977.976-2.257 1.464-3.536 1.464zM453.503 324.254c-1.279 0-2.559-.488-3.535-1.464-2.34-2.339-6.146-2.339-8.486 0-1.951 1.952-5.118 1.953-7.071 0-.976-.976-1.464-2.256-1.464-3.536 0-1.279.488-2.559 1.465-3.535 1.133-1.133 1.757-2.64 1.757-4.242s-.624-3.109-1.757-4.243c-.977-.977-1.465-2.256-1.465-3.536s.488-2.559 1.465-3.536c1.951-1.952 5.119-1.952 7.07 0 2.34 2.34 6.146 2.34 8.486 0 1.951-1.952 5.119-1.952 7.07 0 .977.977 1.465 2.256 1.465 3.536s-.488 2.559-1.465 3.536c-1.133 1.133-1.757 2.64-1.757 4.243s.624 3.109 1.757 4.242c.977.976 1.465 2.256 1.465 3.535 0 1.28-.488 2.56-1.464 3.536s-2.257 1.464-3.536 1.464zM100.622 285.166H44.536c-5.523 0-10.001-4.477-10.001-10.001v-47.796c0-5.523 4.477-10.001 10.001-10.001h56.086c5.523 0 10.001 4.477 10.001 10.001v47.796c0 5.524-4.478 10.001-10.001 10.001z" fill="#ffa052"/>
    <path d="M65.778 268.304c-.833 0-1.677-.208-2.453-.647-2.405-1.358-3.254-4.408-1.896-6.813l13.593-24.072c1.358-2.404 4.409-3.253 6.812-1.896 2.405 1.358 3.254 4.408 1.896 6.813l-13.593 24.072c-.919 1.628-2.614 2.543-4.359 2.543z" fill="#f5f4f9"/>
    <path d="M380.549 139.98h-56.086c-5.523 0-10.001-4.477-10.001-10.001V82.183c0-5.523 4.478-10.001 10.001-10.001h56.086c5.523 0 10.001 4.477 10.001 10.001v47.796c0 5.523-4.477 10.001-10.001 10.001z" fill="#c182f9"/>
    <path d="M345.705 123.118c-.833 0-1.677-.209-2.453-.647-2.405-1.358-3.254-4.408-1.896-6.813l13.593-24.072c1.358-2.404 4.409-3.253 6.812-1.896 2.405 1.358 3.254 4.408 1.896 6.813l-13.593 24.072c-.919 1.628-2.614 2.543-4.359 2.543z" fill="#f5f4f9"/>
    <circle cx="256.17" cy="262.499" fill="#f5f4f9" r="11.232"/>
    <g fill="#590bb2">
        <path d="M251.17 196.401c0 2.761 2.238 5 5 5s5-2.239 5-5v-12.018c0-2.761-2.238-5-5-5s-5 2.239-5 5zM256.17 129.294c2.762 0 5-2.239 5-5v-12.018c0-2.761-2.238-5-5-5s-5 2.239-5 5v12.018c0 2.761 2.238 5 5 5zM251.17 160.348c0 2.761 2.238 5 5 5s5-2.239 5-5V148.33c0-2.761-2.238-5-5-5s-5 2.239-5 5zM256.17 395.705c-2.762 0-5 2.239-5 5v12.018c0 2.761 2.238 5 5 5s5-2.239 5-5v-12.018c0-2.761-2.238-5-5-5zM261.17 328.598c0-2.761-2.238-5-5-5s-5 2.239-5 5v12.018c0 2.761 2.238 5 5 5s5-2.239 5-5zM261.17 292.544c0-2.761-2.238-5-5-5s-5 2.239-5 5v12.018c0 2.761 2.238 5 5 5s5-2.239 5-5zM261.17 364.651c0-2.761-2.238-5-5-5s-5 2.239-5 5v12.018c0 2.761 2.238 5 5 5s5-2.239 5-5zM251.17 232.455c0 2.761 2.238 5 5 5s5-2.239 5-5v-12.018c0-2.761-2.238-5-5-5s-5 2.239-5 5zM122.291 339.795c.926 1.604 2.606 2.501 4.335 2.501.848 0 1.708-.216 2.495-.671l10.28-5.936c2.392-1.381 3.211-4.439 1.83-6.83-1.38-2.391-4.439-3.212-6.83-1.83l-10.28 5.936c-2.392 1.381-3.211 4.438-1.83 6.83zM342.514 217.653c.848 0 1.708-.216 2.495-.671l10.28-5.936c2.392-1.381 3.211-4.438 1.83-6.83-1.38-2.391-4.439-3.212-6.83-1.83l-10.28 5.936c-2.392 1.381-3.211 4.438-1.83 6.83.925 1.604 2.606 2.501 4.335 2.501zM311.672 235.459c.848 0 1.708-.216 2.495-.671l10.28-5.935c2.392-1.38 3.211-4.438 1.83-6.83-1.38-2.391-4.438-3.212-6.83-1.83l-10.28 5.935c-2.392 1.38-3.211 4.438-1.83 6.83.926 1.604 2.606 2.501 4.335 2.501zM280.831 253.265c.848 0 1.708-.216 2.495-.671l10.28-5.935c2.392-1.38 3.211-4.438 1.83-6.83-1.38-2.391-4.439-3.212-6.83-1.83l-10.28 5.935c-2.392 1.38-3.211 4.438-1.83 6.83.926 1.604 2.607 2.501 4.335 2.501zM373.354 199.847c.848 0 1.708-.216 2.495-.671l10.28-5.936c2.392-1.381 3.211-4.439 1.83-6.83-1.38-2.391-4.438-3.212-6.83-1.83l-10.28 5.936c-2.392 1.381-3.211 4.438-1.83 6.83.926 1.604 2.607 2.501 4.335 2.501zM214.813 286.377c.926 1.604 2.606 2.501 4.335 2.501.848 0 1.708-.216 2.495-.671l10.281-5.936c2.392-1.38 3.211-4.438 1.83-6.83-1.38-2.391-4.438-3.212-6.83-1.83l-10.281 5.936c-2.391 1.38-3.21 4.438-1.83 6.83zM153.132 321.989c.926 1.604 2.606 2.501 4.335 2.501.848 0 1.708-.216 2.495-.671l10.28-5.936c2.392-1.381 3.211-4.439 1.83-6.83-1.38-2.391-4.438-3.212-6.83-1.83l-10.28 5.936c-2.392 1.381-3.211 4.438-1.83 6.83zM183.973 304.183c.926 1.604 2.606 2.501 4.335 2.501.848 0 1.708-.216 2.495-.671l10.28-5.936c2.392-1.381 3.211-4.439 1.83-6.83-1.38-2.391-4.438-3.212-6.83-1.83l-10.28 5.936c-2.392 1.38-3.211 4.438-1.83 6.83zM217.603 246.006l10.32 5.958c.788.455 1.647.671 2.495.671 1.729 0 3.409-.897 4.335-2.501 1.381-2.392.562-5.45-1.83-6.83l-10.32-5.958c-2.396-1.382-5.451-.561-6.83 1.83-1.381 2.391-.562 5.45 1.83 6.83zM124.723 192.381l10.32 5.958c.787.455 1.647.671 2.495.671 1.729 0 3.409-.897 4.335-2.501 1.381-2.392.562-5.449-1.83-6.83l-10.32-5.958c-2.393-1.382-5.45-.56-6.83 1.83-1.381 2.392-.562 5.45 1.83 6.83zM186.643 228.131l10.32 5.958c.787.455 1.647.671 2.495.671 1.729 0 3.409-.897 4.335-2.501 1.381-2.392.562-5.449-1.83-6.83l-10.32-5.958c-2.393-1.381-5.45-.561-6.83 1.83-1.381 2.391-.562 5.449 1.83 6.83zM155.683 210.256l10.32 5.958c.788.455 1.647.671 2.495.671 1.729 0 3.409-.897 4.335-2.501 1.381-2.392.562-5.45-1.83-6.83l-10.32-5.958c-2.396-1.381-5.451-.561-6.83 1.83-1.381 2.392-.562 5.45 1.83 6.83z"/>
        <path d="M474.5 274.166h-38.521v-86.478c12.281-2.347 21.594-13.161 21.594-26.115 0-14.664-11.93-26.593-26.594-26.593-8.023 0-15.222 3.577-20.102 9.213l-16.16-9.33c.53-1.533.833-3.172.833-4.884V82.183c0-8.271-6.729-15.001-15-15.001h-56.087c-8.271 0-15 6.729-15 15.001v3.458l-28.177-16.268c.953-2.736 1.478-5.67 1.478-8.727 0-14.664-11.93-26.593-26.594-26.593-14.663 0-26.593 11.93-26.593 26.593 0 3.056.525 5.991 1.478 8.727l-129.592 74.82c-4.88-5.637-12.079-9.214-20.102-9.214-14.664 0-26.594 11.93-26.594 26.593 0 12.954 9.313 23.768 21.594 26.115v24.68H44.536c-8.271 0-15.001 6.729-15.001 15.001v47.796c0 8.271 6.729 15.001 15.001 15.001h56.086c8.271 0 15.001-6.729 15.001-15.001v-47.796c0-8.271-6.729-15.001-15.001-15.001H86.361v-24.68c5.985-1.144 11.262-4.3 15.102-8.735l2.619 1.512c.787.455 1.646.671 2.495.671 1.728 0 3.409-.897 4.335-2.5 1.381-2.392.562-5.45-1.83-6.831l-2.606-1.505c.953-2.736 1.478-5.67 1.478-8.727s-.525-5.991-1.478-8.727l129.592-74.82c3.84 4.436 9.117 7.591 15.102 8.735v1.479c0 2.761 2.238 5 5 5s5-2.239 5-5V86.76c5.986-1.144 11.263-4.3 15.103-8.735l33.19 19.162v32.791c0 8.271 6.729 15.001 15 15.001h56.087c2.871 0 5.547-.825 7.829-2.23l17.486 10.096c-.953 2.736-1.478 5.67-1.478 8.727 0 3.056.525 5.991 1.478 8.727l-4.174 2.41c-2.392 1.38-3.211 4.438-1.83 6.83.926 1.604 2.606 2.501 4.335 2.501.848 0 1.708-.216 2.495-.671l4.187-2.417c3.84 4.436 9.117 7.591 15.102 8.735v91.478c0 2.761 2.238 5 5 5h43.52c2.757 0 5 2.243 5 5v99.333c0 2.757-2.243 5-5 5H300.501c-2.757 0-5-2.243-5-5v-99.333c0-2.757 2.243-5 5-5h102.94c2.762 0 5-2.239 5-5s-2.238-5-5-5h-102.94c-3.355 0-6.446 1.121-8.947 2.989l-7.032-4.059c-2.396-1.383-5.451-.561-6.83 1.83-1.381 2.392-.562 5.45 1.83 6.83l6.455 3.727c-.3 1.181-.477 2.411-.477 3.684v99.333c0 8.271 6.729 15 15 15h51.069l-75.297 43.473c-3.84-4.436-9.117-7.592-15.103-8.735v-1.478c0-2.761-2.238-5-5-5s-5 2.239-5 5v1.478c-5.986 1.144-11.262 4.3-15.102 8.736l-129.592-74.82c.953-2.736 1.478-5.67 1.478-8.726 0-3.057-.525-5.991-1.478-8.727l2.084-1.203c2.392-1.38 3.211-4.438 1.83-6.83-1.381-2.391-4.439-3.212-6.83-1.83l-2.096 1.21c-3.84-4.436-9.116-7.591-15.102-8.735v-24.606c0-2.761-2.238-5-5-5s-5 2.239-5 5v24.606c-12.281 2.347-21.594 13.161-21.594 26.115 0 14.663 11.93 26.593 26.594 26.593 8.023 0 15.222-3.577 20.102-9.214l129.592 74.82c-.953 2.736-1.478 5.67-1.478 8.727 0 14.663 11.93 26.593 26.593 26.593 14.664 0 26.594-11.93 26.594-26.593 0-3.057-.525-5.991-1.478-8.727l89.694-51.785c.172-.099.318-.225.473-.341H474.5c8.271 0 15-6.729 15-15v-99.333c0-8.272-6.729-15.001-15-15.001zm-368.877-46.797v47.796c0 2.757-2.243 5.001-5.001 5.001H44.536c-2.758 0-5.001-2.244-5.001-5.001v-47.796c0-2.757 2.243-5.001 5.001-5.001h56.086c2.758 0 5.001 2.244 5.001 5.001zm-24.262-49.203c-9.149 0-16.594-7.443-16.594-16.593s7.444-16.593 16.594-16.593 16.593 7.444 16.593 16.593-7.443 16.593-16.593 16.593zM256.17 77.24c-9.149 0-16.593-7.443-16.593-16.593s7.443-16.593 16.593-16.593 16.594 7.444 16.594 16.593-7.445 16.593-16.594 16.593zm124.38 57.74h-56.087c-2.757 0-5-2.244-5-5.001V82.183c0-2.757 2.243-5.001 5-5.001h56.087c2.757 0 5 2.244 5 5.001v47.796c0 2.757-2.243 5.001-5 5.001zm33.837 26.593c0-9.149 7.443-16.593 16.593-16.593s16.594 7.444 16.594 16.593-7.444 16.593-16.594 16.593-16.593-7.443-16.593-16.593zM81.361 380.019c-9.149 0-16.594-7.443-16.594-16.593s7.444-16.593 16.594-16.593 16.593 7.444 16.593 16.593-7.443 16.593-16.593 16.593zM256.17 480.945c-9.149 0-16.593-7.443-16.593-16.593s7.443-16.593 16.593-16.593 16.594 7.444 16.594 16.593-7.445 16.593-16.594 16.593z"/>
        <path d="M239.938 262.5c0 8.95 7.281 16.232 16.231 16.232s16.232-7.282 16.232-16.232c0-8.951-7.282-16.232-16.232-16.232s-16.231 7.281-16.231 16.232zm16.232-6.233c3.437 0 6.232 2.796 6.232 6.232s-2.796 6.232-6.232 6.232-6.231-2.795-6.231-6.232 2.795-6.232 6.231-6.232z"/>
    </g>
    <path d="M38.517 332.502c-1.326 0-2.598-.527-3.535-1.464L23.965 320.02c-1.953-1.953-1.953-5.119 0-7.071l11.017-11.017c.938-.938 2.209-1.464 3.535-1.464s2.598.527 3.535 1.464l11.018 11.017c.938.938 1.465 2.209 1.465 3.536s-.526 2.598-1.465 3.536l-11.018 11.017c-.938.937-2.209 1.464-3.535 1.464zm-3.946-16.018l3.945 3.946 3.946-3.946-3.946-3.946z" fill="#c182f9"/>
    <path d="M401.567 447.871c-1.326 0-2.598-.527-3.535-1.464l-11.018-11.017c-.938-.938-1.465-2.209-1.465-3.536s.526-2.598 1.465-3.536l11.018-11.017c.938-.938 2.209-1.464 3.535-1.464s2.598.527 3.535 1.464l11.017 11.017c1.953 1.953 1.953 5.119 0 7.071l-11.017 11.017c-.937.938-2.208 1.465-3.535 1.465zm-3.946-16.017l3.946 3.946 3.945-3.946-3.945-3.946zM436.826 103.943c-.848 0-1.708-.216-2.495-.671l-13.493-7.79c-2.392-1.38-3.211-4.438-1.83-6.83l7.79-13.493c1.38-2.391 4.438-3.212 6.83-1.83l13.493 7.79c2.392 1.38 3.211 4.438 1.83 6.83l-7.79 13.493c-.926 1.604-2.606 2.501-4.335 2.501zm-6.658-14.621l4.833 2.79 2.79-4.833-4.833-2.79z" fill="#ffa052"/>
    <path d="M407.566 59.107c-2.762 0-5-2.239-5-5 0-3.318-2.699-6.017-6.017-6.017-2.762 0-5-2.239-5-5s2.238-5 5-5c3.317 0 6.017-2.699 6.017-6.017 0-2.761 2.238-5 5-5s5 2.239 5 5c0 3.318 2.699 6.017 6.018 6.017 2.762 0 5 2.239 5 5s-2.238 5-5 5c-3.318 0-6.018 2.699-6.018 6.017 0 2.761-2.238 5-5 5z" fill="#ffe783"/>
</svg>
