<svg xmlns="http://www.w3.org/2000/svg" id="Capa_1" width="512" height="512" viewBox="0 0 512 512"><linearGradient id="SVGID_1_" x1="53.976" x2="458.024" y1="256" y2="256" gradientUnits="userSpaceOnUse"><stop offset=".049" stop-color="#d2deff"/><stop offset=".999" stop-color="#dcfdee"/></linearGradient><path fill="url(#SVGID_1_)" d="m170.091.39c-68.06 4.435-134.218 61.127-111.591 135.073 18.265 59.691 84.702 87.73 134.671 115.676 47.928 26.805 98.6 60.229 112.037 117.192 9.247 39.199-2.084 84.916 22.012 117.187 42.331 56.693 124.077 13.634 130.314-47.258 5.176-50.542-31.51-94.701-65.828-132.165-33.267-36.317-70.462-71.374-99.992-110.843-27.345-36.55-41.639-81.985-5.379-118.188 8.145-8.132 17.848-16.505 14.872-29.734-9.77-43.394-97.817-49.109-131.116-46.94z"/><path fill="#2626bc" d="m435.46 321.17c.657-6.26 1-12.614 1-19.048 0-78.139-49.666-144.671-119.149-169.769.602-3.475.934-7.043.934-10.691 0-34.377-27.868-62.244-62.244-62.244-34.377 0-62.244 27.868-62.244 62.244 0 3.647.332 7.215.934 10.691-69.485 25.098-119.151 91.63-119.151 169.769 0 6.434.343 12.788 1 19.048-26.055 7.435-45.139 31.403-45.139 59.844 0 34.377 27.868 62.244 62.244 62.244 13.635 0 26.237-4.396 36.491-11.832 32.511 31.651 76.906 51.155 125.863 51.155s93.352-19.504 125.863-51.155c10.254 7.436 22.856 11.832 36.491 11.832 34.377 0 62.244-27.868 62.244-62.244.001-28.441-19.082-52.41-45.137-59.844z" opacity=".1"/><circle cx="256" cy="278.122" r="180.46" fill="#01eca5"/><g fill="#00d890"><path d="M431.53 320.172c-9.43 39.54-31.89 74.04-62.58 98.7-8.05-10.49-12.84-23.62-12.84-37.86 0-34.37 27.87-62.24 62.24-62.24 4.52 0 8.93.48 13.18 1.4zM155.89 381.012c0 14.24-4.79 27.37-12.84 37.86-30.69-24.66-53.15-59.16-62.58-98.7 4.25-.92 8.66-1.4 13.18-1.4 34.37 0 62.24 27.87 62.24 62.24zM316.77 108.152c.96 4.35 1.47 8.87 1.47 13.51 0 34.38-27.86 62.24-62.24 62.24s-62.24-27.86-62.24-62.24c0-4.64.51-9.16 1.47-13.51 18.98-6.79 39.44-10.49 60.77-10.49s41.79 3.7 60.77 10.49z"/></g><circle cx="256" cy="278.122" r="148.419" fill="#97ffd2"/><path fill="#02ffb3" d="m314.89 141.852c-8.38 24.47-31.58 42.05-58.89 42.05s-50.51-17.58-58.89-42.05c18.05-7.82 37.97-12.15 58.89-12.15s40.84 4.33 58.89 12.15z"/><circle cx="256" cy="97.662" r="62.244" fill="#9fb0fe"/><circle cx="93.646" cy="357.014" r="62.244" fill="#ffa8cf"/><circle cx="418.354" cy="357.014" r="62.244" fill="#fff"/><circle cx="418.354" cy="357.014" r="18.874" fill="#ff7eb8"/><path fill="#2626bc" d="m440.808 293.639c.425-5.134.651-10.344.651-15.517 0-38.407-11.637-75.257-33.654-106.564-21.277-30.256-50.643-53.218-84.979-66.482.268-2.436.418-4.908.418-7.414 0-30.281-20.396-56.965-49.601-64.89-2.664-.72-5.412.851-6.135 3.516s.851 5.412 3.516 6.135c24.858 6.745 42.22 29.46 42.22 55.238 0 31.564-25.68 57.244-57.244 57.244s-57.244-25.68-57.244-57.244c0-25.632 17.239-48.312 41.923-55.154 2.661-.738 4.221-3.493 3.483-6.154s-3.493-4.218-6.154-3.483c-28.999 8.038-49.252 34.681-49.252 64.791 0 2.506.149 4.978.418 7.414-34.339 13.265-63.707 36.229-84.984 66.487-22.014 31.306-33.649 68.153-33.649 106.558 0 5.172.226 10.382.651 15.517-26.068 9.264-44.79 34.169-44.79 63.376 0 37.079 30.166 67.244 67.244 67.244s67.244-30.166 67.244-67.244-30.166-67.245-67.244-67.245c-4.319 0-8.54.425-12.635 1.207-.308-4.265-.471-8.574-.471-12.855 0-36.335 11.006-71.193 31.83-100.806 19.777-28.125 46.948-49.568 78.693-62.214 7.702 28.649 33.89 49.805 64.937 49.805s57.235-21.155 64.937-49.805c31.743 12.646 58.912 34.086 78.689 62.208 20.826 29.614 31.833 64.474 31.833 100.812 0 4.282-.163 8.591-.471 12.855-4.095-.782-8.315-1.207-12.635-1.207-37.079 0-67.244 30.166-67.244 67.245 0 20.222 8.985 38.374 23.159 50.712-32.4 29.598-74.248 45.857-118.268 45.857-32.431 0-64.107-8.915-91.605-25.781-2.353-1.442-5.433-.706-6.876 1.648-1.444 2.354-.706 5.433 1.648 6.876 29.072 17.832 62.557 27.257 96.834 27.257 47.17 0 91.975-17.668 126.415-49.776 10.404 6.608 22.728 10.453 35.939 10.453 37.079 0 67.244-30.166 67.244-67.244-.001-29.207-18.722-54.112-44.791-63.376zm-289.918 63.376c0 31.564-25.68 57.244-57.244 57.244s-57.244-25.68-57.244-57.244c0-31.565 25.68-57.245 57.244-57.245s57.244 25.68 57.244 57.245zm267.464 57.244c-31.564 0-57.244-25.68-57.244-57.244 0-31.565 25.68-57.245 57.244-57.245s57.244 25.68 57.244 57.245c0 31.564-25.68 57.244-57.244 57.244z"/><path fill="#fff" d="m294.309 263.139h-29.747v-58.318c0-2.719-3.652-3.607-4.9-1.191l-44.277 85.69c-.892 1.727.361 3.786 2.305 3.786h29.747v58.318c0 2.719 3.652 3.607 4.9 1.191l44.277-85.69c.893-1.727-.361-3.786-2.305-3.786z"/><path fill="#ff7eb8" d="M193.778 383.63h-13.52c-2.762 0-5-2.239-5-5s2.238-5 5-5h13.52c2.762 0 5 2.239 5 5s-2.239 5-5 5zM193.778 367.014h-13.52c-2.762 0-5-2.239-5-5s2.238-5 5-5h13.52c2.762 0 5 2.239 5 5s-2.239 5-5 5zM331.742 383.63h-13.52c-2.762 0-5-2.239-5-5s2.238-5 5-5h13.52c2.762 0 5 2.239 5 5s-2.238 5-5 5zM331.742 367.014h-13.52c-2.762 0-5-2.239-5-5s2.238-5 5-5h13.52c2.762 0 5 2.239 5 5s-2.238 5-5 5z"/><path fill="#8399fe" d="M320.597 190.022h-13.52c-2.762 0-5-2.239-5-5s2.238-5 5-5h13.52c2.762 0 5 2.239 5 5s-2.238 5-5 5zM320.597 173.406h-13.52c-2.762 0-5-2.239-5-5s2.238-5 5-5h13.52c2.762 0 5 2.239 5 5s-2.238 5-5 5z"/><path fill="#02ffb3" d="m282.118 92.596c0 16.933-10.923 31.3-26.112 36.454-15.189-5.154-26.123-19.521-26.123-36.454 0-16.922 10.934-31.289 26.123-36.443 15.189 5.154 26.112 19.521 26.112 36.443z"/><path fill="#00b574" d="m256 138.293c-2.761 0-5-2.239-5-5v-50.745c0-2.761 2.239-5 5-5s5 2.239 5 5v50.745c0 2.761-2.239 5-5 5z"/><path fill="#6583fe" d="m117.239 367.781c0 13.03-10.563 23.593-23.593 23.593s-23.593-10.563-23.593-23.593c0-9.944 13.742-32.944 20.251-43.279 1.551-2.462 5.135-2.462 6.686 0 6.507 10.335 20.249 33.334 20.249 43.279z"/><path fill="#ffc4df" d="M418.354 330.285c-2.761 0-5-2.239-5-5v-5.728c0-2.761 2.239-5 5-5s5 2.239 5 5v5.728c0 2.761-2.239 5-5 5zM418.354 400.579c-2.761 0-5-2.239-5-5v-5.728c0-2.761 2.239-5 5-5s5 2.239 5 5v5.728c0 2.761-2.239 5-5 5zM441.182 339.741c-1.28 0-2.559-.488-3.536-1.464-1.953-1.953-1.953-5.119 0-7.071l4.05-4.05c1.953-1.952 5.118-1.952 7.071 0 1.953 1.953 1.953 5.119 0 7.071l-4.05 4.05c-.976.976-2.256 1.464-3.535 1.464zM391.477 389.446c-1.28 0-2.559-.488-3.536-1.464-1.953-1.953-1.953-5.119 0-7.071l4.05-4.05c1.953-1.952 5.118-1.952 7.071 0 1.953 1.953 1.953 5.119 0 7.071l-4.05 4.05c-.976.976-2.256 1.464-3.535 1.464zM456.365 362.568h-5.728c-2.761 0-5-2.239-5-5s2.239-5 5-5h5.728c2.761 0 5 2.239 5 5s-2.239 5-5 5zM386.071 362.568h-5.728c-2.761 0-5-2.239-5-5s2.239-5 5-5h5.728c2.761 0 5 2.239 5 5s-2.238 5-5 5zM445.231 389.446c-1.28 0-2.559-.488-3.536-1.464l-4.05-4.05c-1.953-1.953-1.953-5.119 0-7.071s5.118-1.952 7.071 0l4.05 4.05c1.953 1.953 1.953 5.119 0 7.071-.975.976-2.255 1.464-3.535 1.464zM395.526 339.741c-1.28 0-2.559-.488-3.536-1.464l-4.05-4.05c-1.953-1.953-1.953-5.119 0-7.071s5.118-1.952 7.071 0l4.05 4.05c1.953 1.953 1.953 5.119 0 7.071-.976.976-2.255 1.464-3.535 1.464z"/><path fill="#ff7eb8" d="m51.371 199.902c-1.28 0-2.559-.488-3.536-1.464-1.953-1.953-1.953-5.119 0-7.071l3.328-3.328-5.002-3.173c-1.282-.813-2.125-2.164-2.292-3.673s.361-3.012 1.434-4.085l7.742-7.742c1.953-1.952 5.118-1.952 7.071 0 1.953 1.953 1.953 5.119 0 7.071l-3.328 3.327 5.002 3.173c1.282.813 2.125 2.164 2.292 3.673s-.361 3.012-1.434 4.085l-7.742 7.742c-.976.977-2.256 1.465-3.535 1.465z"/><path fill="#01eca5" d="m367.601 82.548c-1.28 0-2.559-.488-3.536-1.464-1.953-1.953-1.953-5.119 0-7.071l3.328-3.328-5.002-3.173c-1.282-.813-2.125-2.164-2.292-3.673s.361-3.012 1.434-4.085l7.742-7.742c1.953-1.952 5.118-1.952 7.071 0 1.953 1.953 1.953 5.119 0 7.071l-3.328 3.327 5.002 3.173c1.282.813 2.125 2.164 2.292 3.673s-.361 3.012-1.434 4.085l-7.742 7.742c-.976.977-2.255 1.465-3.535 1.465z"/><path fill="#6583fe" d="m423.354 125.581c-2.761 0-5-2.239-5-5 0-3.309-2.691-6-6-6-2.761 0-5-2.239-5-5s2.239-5 5-5c3.309 0 6-2.691 6-6 0-2.761 2.239-5 5-5s5 2.239 5 5c0 3.309 2.691 6 6 6 2.761 0 5 2.239 5 5s-2.239 5-5 5c-3.309 0-6 2.691-6 6 0 2.761-2.239 5-5 5z"/><path fill="#ff7eb8" d="m423.354 60.548c-2.761 0-5-2.239-5-5 0-3.309-2.691-6-6-6-2.761 0-5-2.239-5-5s2.239-5 5-5c3.309 0 6-2.691 6-6 0-2.761 2.239-5 5-5s5 2.239 5 5c0 3.309 2.691 6 6 6 2.761 0 5 2.239 5 5s-2.239 5-5 5c-3.309 0-6 2.691-6 6 0 2.761-2.239 5-5 5z"/><path fill="#01eca5" d="m383.208 485.582c-2.761 0-5-2.239-5-5 0-3.309-2.692-6-6-6-2.761 0-5-2.239-5-5s2.239-5 5-5c3.309 0 6-2.692 6-6 0-2.761 2.239-5 5-5s5 2.239 5 5c0 3.309 2.691 6 6 6 2.761 0 5 2.239 5 5s-2.239 5-5 5c-3.308 0-6 2.691-6 6 0 2.761-2.239 5-5 5z"/></svg>