<svg height="512" viewBox="0 0 512 512" width="512" xmlns="http://www.w3.org/2000/svg">
    <linearGradient id="a" gradientUnits="userSpaceOnUse" x1="215.709" x2="852.345" y1="256" y2="256">
        <stop offset=".001" stop-color="#fff0d5"/>
        <stop offset=".511" stop-color="#ffdfff"/>
        <stop offset="1" stop-color="#d9ceff"/>
    </linearGradient>
    <path d="M408.228 154.261c-23.697-9.236-43.717-26.089-55.961-48.381-20.59-37.487-60.43-62.898-106.221-62.898-47.53 0-88.646 27.377-108.477 67.219-12.146 24.401-32.814 43.56-58.09 53.761C42.13 179.036 10.776 213.486.826 267.344-.266 273.254-.282 279.33.81 285.24c15.448 83.572 82.399 120.435 143.334 110.66 34.126-5.474 68.672 5.909 93.967 29.462 51.434 47.892 133.884 62.907 213.923 11.57 9.377-6.014 21.957-18.634 27.966-28.015 68.967-107.669 17.879-219.713-71.772-254.656z" fill="url(#a)"/>
    <path d="M456 94.609v254.25c0 8.28-6.72 15-15 15H71c-8.28 0-15-6.72-15-15V94.609c0-8.28 6.72-15 15-15h370c8.28 0 15 6.72 15 15z" fill="#590bb2" opacity=".1"/>
    <path d="M382.05 442.772c-1.326 0-2.598-.527-3.535-1.464l-11.018-11.018c-1.953-1.953-1.953-5.119 0-7.071l11.018-11.018c.938-.938 2.209-1.464 3.535-1.464s2.598.527 3.535 1.464l11.019 11.018c.938.938 1.465 2.209 1.465 3.536s-.526 2.598-1.465 3.536l-11.019 11.018c-.938.936-2.209 1.463-3.535 1.463zm-3.946-16.018l3.946 3.947 3.947-3.947-3.947-3.947z" fill="#c182f9"/>
    <path d="M139.386 448.936c-2.761 0-5-2.239-5-5 0-3.318-2.7-6.018-6.018-6.018-2.761 0-5-2.239-5-5s2.239-5 5-5c3.318 0 6.018-2.7 6.018-6.018 0-2.761 2.239-5 5-5s5 2.239 5 5c0 3.318 2.7 6.018 6.018 6.018 2.761 0 5 2.239 5 5s-2.239 5-5 5c-3.318 0-6.018 2.7-6.018 6.018 0 2.762-2.239 5-5 5z" fill="#ffe783"/>
    <path d="M430.982 473.584c-2.762 0-5-2.239-5-5 0-3.318-2.7-6.018-6.019-6.018-2.762 0-5-2.239-5-5s2.238-5 5-5c3.318 0 6.019-2.7 6.019-6.018 0-2.761 2.238-5 5-5s5 2.239 5 5c0 3.318 2.699 6.018 6.018 6.018 2.762 0 5 2.239 5 5s-2.238 5-5 5c-3.318 0-6.018 2.7-6.018 6.018 0 2.761-2.238 5-5 5z" fill="#ffa052"/>
    <path d="M312.71 457.566H199.289l14.782-58.602 7.9-31.302h68.057l7.9 31.302z" fill="#afabc6"/>
    <path d="M297.928 398.964h-83.857l7.9-31.302h68.057z" fill="#8e8ca8"/>
    <path d="M456 115.612v254.25c0 8.28-6.72 15-15 15H71c-8.28 0-15-6.72-15-15v-254.25c0-8.28 6.72-15 15-15h370c8.28 0 15 6.72 15 15z" fill="#f5f4f9"/>
    <path d="M123.83 100.612h264.34v128.871H123.83z" fill="#e8e6ed"/>
    <path d="M456 148.784v-33.171c0-8.284-6.716-15-15-15H71c-8.284 0-15 6.716-15 15v33.171z" fill="#ffa052"/>
    <path d="M56 334.47v35.39c0 8.284 6.716 15 15 15h370c8.284 0 15-6.716 15-15v-35.39z" fill="#cecae0"/>
    <g fill="#590bb2">
        <path d="M94.082 119.625c-2.761 0-5 2.239-5 5v.145c0 2.761 2.239 5 5 5s5-2.239 5-5v-.145c0-2.761-2.239-5-5-5zM113.407 119.625c-2.761 0-5 2.239-5 5v.145c0 2.761 2.239 5 5 5s5-2.239 5-5v-.145c0-2.761-2.239-5-5-5zM132.731 119.625c-2.761 0-5 2.239-5 5v.145c0 2.761 2.239 5 5 5s5-2.239 5-5v-.145c0-2.761-2.238-5-5-5z"/>
        <path d="M441 95.612H71c-11.028 0-20 8.972-20 20v254.247c0 11.028 8.972 20 20 20h219.475l15.821 62.701H205.704l10.406-41.239c.675-2.677-.947-5.396-3.625-6.071-2.677-.675-5.396.947-6.071 3.625l-11.023 43.685h-15.325c-2.761 0-5 2.239-5 5s2.239 5 5 5h151.868c2.762 0 5-2.239 5-5s-2.238-5-5-5h-15.325l-15.821-62.701H441c11.028 0 20-8.972 20-20v-35.39c0-2.761-2.238-5-5-5-.095 0-.183.023-.276.028-.093-.005-.182-.028-.276-.028H61V153.784h390V306.93c0 2.761 2.238 5 5 5s5-2.239 5-5V115.612c0-11.028-8.972-20-20-20zm10 243.858v30.39c0 5.514-4.486 10-10 10H71c-5.514 0-10-4.486-10-10v-30.39zM61 143.784v-28.171c0-5.514 4.486-10 10-10h370c5.514 0 10 4.486 10 10v28.171z"/>
    </g>
    <path d="M129.309 195.035l-4.253-7.094c-.542-.904-1.519-1.458-2.573-1.458h-17.301c-1.657 0-3 1.343-3 3v48h74.407v-37.991c0-1.657-1.343-3-3-3h-41.707c-1.054 0-2.031-.553-2.573-1.457z" fill="#ffc136"/>
    <path d="M173.589 251.983h-68.407c-1.657 0-3-1.343-3-3v-39c0-1.657 1.343-3 3-3h68.407c1.657 0 3 1.343 3 3v39c0 1.657-1.343 3-3 3z" fill="#ffe783"/>
    <path d="M174.028 281.869h-66.586c-2.829 0-5.123-2.294-5.123-5.123s2.293-5.123 5.123-5.123h66.586c2.829 0 5.123 2.294 5.123 5.123s-2.293 5.123-5.123 5.123z" fill="#ddd9e4"/>
    <path d="M156.028 300.869h-30.586c-2.829 0-5.123-2.294-5.123-5.123s2.293-5.123 5.123-5.123h30.586c2.829 0 5.123 2.294 5.123 5.123s-2.293 5.123-5.123 5.123z" fill="#c182f9"/>
    <path d="M244.642 195.035l-4.253-7.094c-.542-.904-1.519-1.458-2.573-1.458h-17.301c-1.657 0-3 1.343-3 3v48h74.407v-37.991c0-1.657-1.343-3-3-3h-41.707c-1.054 0-2.031-.553-2.573-1.457z" fill="#ffc136"/>
    <path d="M288.923 251.983h-68.407c-1.657 0-3-1.343-3-3v-39c0-1.657 1.343-3 3-3h68.407c1.657 0 3 1.343 3 3v39c0 1.657-1.343 3-3 3z" fill="#ffe783"/>
    <path d="M289.361 281.869h-66.586c-2.829 0-5.123-2.294-5.123-5.123s2.293-5.123 5.123-5.123h66.586c2.829 0 5.123 2.294 5.123 5.123s-2.293 5.123-5.123 5.123z" fill="#ddd9e4"/>
    <path d="M271.361 300.869h-30.586c-2.829 0-5.123-2.294-5.123-5.123s2.293-5.123 5.123-5.123h30.586c2.829 0 5.123 2.294 5.123 5.123s-2.293 5.123-5.123 5.123z" fill="#c182f9"/>
    <path d="M359.976 195.035l-4.253-7.094c-.542-.904-1.519-1.458-2.573-1.458h-17.301c-1.657 0-3 1.343-3 3v48h74.407v-37.991c0-1.657-1.343-3-3-3h-41.707c-1.055 0-2.031-.553-2.573-1.457z" fill="#ffc136"/>
    <path d="M404.256 251.983h-68.407c-1.657 0-3-1.343-3-3v-39c0-1.657 1.343-3 3-3h68.407c1.657 0 3 1.343 3 3v39c0 1.657-1.343 3-3 3z" fill="#ffe783"/>
    <path d="M404.695 281.869h-66.586c-2.829 0-5.123-2.294-5.123-5.123s2.293-5.123 5.123-5.123h66.586c2.829 0 5.123 2.294 5.123 5.123s-2.294 5.123-5.123 5.123z" fill="#ddd9e4"/>
    <path d="M386.695 300.869h-30.586c-2.829 0-5.123-2.294-5.123-5.123s2.293-5.123 5.123-5.123h30.586c2.829 0 5.123 2.294 5.123 5.123s-2.294 5.123-5.123 5.123z" fill="#c182f9"/>
    <path d="M350.986 70.452c-1.326 0-2.598-.527-3.535-1.464L336.433 57.97c-1.953-1.953-1.953-5.119 0-7.071l11.018-11.018c1.951-1.952 5.119-1.952 7.07 0l11.018 11.018c1.953 1.953 1.953 5.119 0 7.071l-11.018 11.018c-.937.937-2.208 1.464-3.535 1.464zm-3.946-16.019l3.946 3.947 3.946-3.947-3.946-3.946z" fill="#ffe783"/>
</svg>
