<svg id="Capa_1" enable-background="new 0 0 512 512" height="512" viewBox="0 0 512 512" width="512" xmlns="http://www.w3.org/2000/svg" xmlns:xlink="http://www.w3.org/1999/xlink"><linearGradient id="SVGID_1_" gradientUnits="userSpaceOnUse" x1="10.367" x2="536.841" y1="53.393" y2="545.368"><stop offset=".0023" stop-color="#ffc599"/><stop offset=".992" stop-color="#ffe8dc" stop-opacity="0"/></linearGradient><path d="m465.257 165.9c-14.861-17.312-24.645-38.356-29.218-60.708-3.878-18.954-12.095-35.401-24.961-48.267-58.773-58.773-192.264-20.572-298.161 85.325s-144.098 239.387-85.325 298.16c27.937 27.937 72.757 33.955 123.469 21.212 29.453-7.401 60.532-4.287 88.29 8.03 23.202 10.295 48.799 16.173 75.724 16.566 105.676 1.543 193.748-82.552 196.839-188.195 1.479-50.505-16.354-96.822-46.657-132.123z" fill="url(#SVGID_1_)"/><path d="m411.896 185.776c.195-.004.389-.015.585-.015h-183.86c-16.57 0-30 13.43-30 30v64.409c-10.839-15.475-28.79-25.603-49.117-25.603-33.104 0-59.94 26.836-59.94 59.94s26.836 59.94 59.94 59.94c20.327 0 38.278-10.128 49.117-25.603v56.444h-55.073c-2.761 0-5 2.239-5 5v44.525c0 16.569 13.431 30 30 30h183.86c-.02 0-.04-.001-.06-.001h.134c16.56 0 30-13.43 30-30v-211.599h53.893c2.761 0 5-2.239 5-5v-22.45c-.001-16.394-13.152-29.708-29.479-29.987z" fill="#00c" opacity=".1"/><path d="m230.439 162.365h100.609c2.836 0 5.132-2.358 5.002-5.191-2.633-57.019-48.4-102.778-105.42-105.409-2.833-.131-5.191 2.166-5.191 5.001v100.599c0 2.762 2.239 5 5 5z" fill="#00c" opacity=".1"/><path d="m441.374 217.213v-22.45c0-16.569-13.431-30-30-30h-51.461v57.45h76.461c2.762 0 5-2.239 5-5z" fill="#ff9d33"/><path d="m441.377 194.766v14.85c0-16.56-13.43-30-30-30h-51.46v-14.85h51.46c16.57 0 30 13.43 30 30z" fill="#ff8b00"/><path d="m412.481 164.761c-16.57 0-30 13.43-30 30v239.05c0 16.57-13.44 30-30 30h-153.86v-269.05c0-16.57 13.43-30 30-30z" fill="#fff"/><path d="m332.325 239.224h-42.191c-2.761 0-5-2.239-5-5v-42.191c0-2.761 2.239-5 5-5h42.191c2.761 0 5 2.239 5 5v42.191c0 2.761-2.239 5-5 5z" fill="#ebebff"/><path d="m312.112 204.207c-2.71 58.75-51.2 105.54-110.61 105.54-.96 0-1.92-.01-2.88-.04v-110.69h108.49c2.83 0 5.13 2.36 5 5.19z" fill="#fee"/><circle cx="318.396" cy="389.088" fill="#ebebff" r="36.513"/><path d="m322.408 433.813v-44.525c0-2.761-2.239-5-5-5h-173.86c-2.761 0-5 2.239-5 5v44.525c0 16.569 13.431 30 30 30h183.86c-16.57 0-30-13.43-30-30z" fill="#ff9d33"/><path d="m313.396 342.255h-84.5c-2.762 0-5-2.239-5-5s2.238-5 5-5h84.5c2.762 0 5 2.239 5 5s-2.238 5-5 5z" fill="#b3b3ff"/><path d="m247.396 315.184h-18.5c-2.762 0-5-2.239-5-5s2.238-5 5-5h18.5c2.762 0 5 2.239 5 5s-2.238 5-5 5z" fill="#ff9d33"/><path d="m349.396 362.38h-120.5c-2.762 0-5-2.239-5-5s2.238-5 5-5h120.5c2.762 0 5 2.239 5 5s-2.238 5-5 5z" fill="#b3b3ff"/><path d="m336.153 241.934c-9.161 0-16.613-7.453-16.613-16.613s7.453-16.613 16.613-16.613 16.613 7.453 16.613 16.613-7.452 16.613-16.613 16.613zm0-23.226c-3.646 0-6.613 2.967-6.613 6.613s2.967 6.613 6.613 6.613 6.613-2.967 6.613-6.613-2.966-6.613-6.613-6.613z" fill="#ff2c2c"/><path d="m347.767 253.548c-2.761 0-5-2.238-5-5 0-3.646-2.967-6.613-6.613-6.613s-6.613 2.967-6.613 6.613c0 2.762-2.239 5-5 5s-5-2.238-5-5c0-9.16 7.453-16.613 16.613-16.613s16.613 7.453 16.613 16.613c0 2.761-2.239 5-5 5z" fill="#ff2c2c"/><path d="m307.111 182.777c2.836 0 5.132 2.358 5.002 5.191-2.711 58.749-51.2 105.539-110.61 105.539-61.15 0-110.72-49.57-110.72-110.73 0-59.41 46.789-107.89 105.529-110.6 2.833-.131 5.191 2.166 5.191 5.002v105.599h105.608z" fill="#ff4d4d"/><path d="m331.048 141.365h-100.609c-2.761 0-5-2.239-5-5v-100.599c0-2.836 2.358-5.132 5.191-5.002 57.02 2.632 102.787 48.39 105.419 105.409.131 2.834-2.165 5.192-5.001 5.192z" fill="#9494ff"/><circle cx="149.504" cy="293.507" fill="#ff9d33" r="59.94"/><path d="m412.848 159.8c-.125-.009-.244-.037-.371-.037h-183.86c-8.383 0-16.082 2.967-22.115 7.9v-90.485c0-2.725-1.131-5.368-3.103-7.25-1.958-1.869-4.619-2.866-7.319-2.746-61.85 2.854-110.298 53.631-110.298 115.596 0 23.482 7.039 45.346 19.104 63.611-12.501 11.844-20.323 28.58-20.323 47.119 0 35.809 29.132 64.94 64.94 64.94 17.019 0 32.521-6.59 44.113-17.34v43.181h.003c0 2.762 2.239 5 5 5h118.787v44.524c0 9.784 4.035 18.643 10.528 25h-159.387c-13.785 0-25-11.215-25-25v-44.524h21.073c2.761 0 5-2.238 5-5s-2.239-5-5-5h-21.073c-5.514 0-10 4.486-10 10v44.524c0 19.299 15.701 35 35 35h183.86.069c19.299 0 35-15.701 35-35v-177.589c0-2.762-2.239-5-5-5s-5 2.238-5 5v177.588c0 13.785-11.215 25-25 25h-.069c-13.785 0-25-11.215-25-25v-44.524c0-5.514-4.486-10-10-10h-113.79v-49.933c6.089-9.16 9.907-19.946 10.669-31.556 56.032-6.127 100.166-52.059 102.821-109.602.124-2.693-.877-5.36-2.746-7.317-1.883-1.972-4.525-3.103-7.25-3.103h-96.801c4.568-4.922 11.078-8.015 18.307-8.015h159.388c-6.493 6.357-10.528 15.216-10.528 25v27.461c0 2.762 2.239 5 5 5 .036 0 .07-.01.107-.011h53.791c5.514 0 10-4.486 10-10v-22.45c0-18.804-14.909-34.186-33.527-34.962zm-263.344 188.647c-30.294 0-54.94-24.646-54.94-54.94s24.646-54.939 54.94-54.939 54.94 24.646 54.94 54.939-24.646 54.94-54.94 54.94zm157.614-160.71c-2.41 52.226-42.225 93.989-92.943 100.017-2.923-33.121-30.803-59.187-64.671-59.187-13.655 0-26.331 4.246-36.799 11.473-10.688-16.515-16.923-36.167-16.923-57.263 0-56.61 44.259-102.998 100.72-105.6v105.6c0 2.762 2.239 5 5 5h105.609zm129.257 29.476h-48.897v-22.45c0-13.6 10.918-24.691 24.448-24.986 13.531.295 24.449 11.386 24.449 24.986z" fill="#00c"/><path d="m217.8 423.957 6.464-6.464 6.464 6.464c.977.977 2.256 1.465 3.536 1.465s2.559-.488 3.536-1.465c1.953-1.952 1.953-5.118 0-7.07l-10-10c-1.953-1.953-5.118-1.953-7.071 0l-10 10c-1.953 1.952-1.953 5.118 0 7.07 1.953 1.953 5.118 1.953 7.071 0z" fill="#00c"/><path d="m230.439 146.365h100.609c2.725 0 5.368-1.131 7.25-3.102 1.869-1.958 2.87-4.626 2.746-7.32-1.331-28.824-13.325-55.959-33.773-76.405-20.448-20.445-47.584-32.438-76.41-33.769-2.694-.113-5.362.876-7.319 2.746-1.972 1.883-3.103 4.525-3.103 7.251v100.599c0 5.514 4.486 10 10 10zm69.761-79.755c18.682 18.679 29.64 43.466 30.856 69.755 0 0-.002 0-.008 0h-100.609l-.039-100.605c26.33 1.214 51.119 12.171 69.8 30.85z" fill="#00c"/><circle cx="149.504" cy="293.507" fill="#fff" r="42.384"/><path d="m155.305 316.473h-15.998c-2.761 0-5-2.238-5-5s2.239-5 5-5h15.998c2.196 0 3.983-1.787 3.983-3.983s-1.787-3.982-3.983-3.982h-11.602c-7.71 0-13.983-6.272-13.983-13.982 0-7.711 6.273-13.983 13.983-13.983h15.998c2.761 0 5 2.238 5 5s-2.239 5-5 5h-15.998c-2.196 0-3.983 1.787-3.983 3.983s1.787 3.982 3.983 3.982h11.602c7.71 0 13.983 6.272 13.983 13.982s-6.273 13.983-13.983 13.983z" fill="#ff7300"/><path d="m149.504 323.162c-2.761 0-5-2.238-5-5v-49.31c0-2.762 2.239-5 5-5s5 2.238 5 5v49.31c0 2.762-2.239 5-5 5z" fill="#ff7300"/><g fill="#fff3ee"><path d="m178.254 187.12h-57.5c-2.762 0-5-2.239-5-5s2.238-5 5-5h57.5c2.762 0 5 2.239 5 5s-2.238 5-5 5z"/><path d="m133.254 166.894h-12.5c-2.762 0-5-2.239-5-5s2.238-5 5-5h12.5c2.762 0 5 2.239 5 5s-2.238 5-5 5z"/><path d="m153.974 166.894h-3.5c-2.762 0-5-2.239-5-5s2.238-5 5-5h3.5c2.762 0 5 2.239 5 5s-2.238 5-5 5z"/><path d="m279.414 123.664h-12.5c-2.762 0-5-2.239-5-5s2.238-5 5-5h12.5c2.762 0 5 2.239 5 5s-2.238 5-5 5z"/><path d="m300.134 123.664h-3.5c-2.762 0-5-2.239-5-5s2.238-5 5-5h3.5c2.762 0 5 2.239 5 5s-2.238 5-5 5z"/></g><circle cx="347.767" cy="270.491" fill="#ff9d33" r="5.59"/><circle cx="347.767" cy="287.401" fill="#ff9d33" r="5.59"/><path d="m353.357 304.312c0 3.087-2.503 5.59-5.59 5.59s-5.59-2.503-5.59-5.59 2.503-5.59 5.59-5.59 5.59 2.502 5.59 5.59" fill="#ff9d33"/><path d="m369.749 135.385c-1.28 0-2.559-.488-3.536-1.465-1.953-1.952-1.953-5.118 0-7.07l10-10c1.953-1.953 5.118-1.953 7.071 0 1.953 1.952 1.953 5.118 0 7.07l-10 10c-.976.976-2.256 1.465-3.535 1.465z" fill="#6c6cff"/><path d="m96.489 420.422c-1.28 0-2.559-.488-3.536-1.465-1.953-1.952-1.953-5.118 0-7.07l10-10c1.953-1.953 5.118-1.953 7.071 0 1.953 1.952 1.953 5.118 0 7.07l-10 10c-.976.976-2.255 1.465-3.535 1.465z" fill="#6c6cff"/><path d="m450.072 298.699c-1.28 0-2.559-.488-3.536-1.465l-6.464-6.464-6.464 6.464c-1.953 1.953-5.118 1.953-7.071 0-1.953-1.952-1.953-5.118 0-7.07l10-10c1.953-1.953 5.118-1.953 7.071 0l10 10c1.953 1.952 1.953 5.118 0 7.07-.977.977-2.256 1.465-3.536 1.465z" fill="#ff6c6c"/><path d="m81.928 258.832c-1.28 0-2.559-.488-3.536-1.465l-6.464-6.464-6.464 6.464c-1.953 1.953-5.118 1.953-7.071 0-1.953-1.952-1.953-5.118 0-7.07l10-10c1.953-1.953 5.118-1.953 7.071 0l10 10c1.953 1.952 1.953 5.118 0 7.07-.977.977-2.256 1.465-3.536 1.465z" fill="#ff9d33"/><path d="m179.362 49.786c-1.28 0-2.559-.488-3.536-1.465l-6.464-6.464-6.464 6.464c-1.953 1.953-5.118 1.953-7.071 0-1.953-1.952-1.953-5.118 0-7.07l10-10c1.953-1.953 5.118-1.953 7.071 0l10 10c1.953 1.952 1.953 5.118 0 7.07-.977.977-2.256 1.465-3.536 1.465z" fill="#ff9d33"/></svg>