<svg xmlns="http://www.w3.org/2000/svg" width="256" height="256" viewBox="0 0 100 100"><rect width="100" height="100" rx="20" fill="#000000"></rect><path fill="#fff" d="M26.09 71.60L26.09 71.60Q20.87 71.60 17.33 69.98Q13.79 68.36 11.90 65.81Q10.01 63.26 9.89 60.44L9.89 60.44Q9.89 59.96 10.28 59.57Q10.67 59.18 11.21 59.18L11.21 59.18L14.27 59.18Q14.99 59.18 15.35 59.54Q15.71 59.90 15.83 60.38L15.83 60.38Q16.19 61.82 17.33 63.23Q18.47 64.64 20.60 65.57Q22.73 66.50 26.09 66.50L26.09 66.50Q31.25 66.50 33.68 64.67Q36.11 62.84 36.11 59.78L36.11 59.78Q36.11 57.68 34.82 56.39Q33.53 55.10 30.89 54.08Q28.25 53.06 24.05 51.86L24.05 51.86Q19.67 50.60 16.79 49.10Q13.91 47.60 12.50 45.38Q11.09 43.16 11.09 39.74L11.09 39.74Q11.09 36.50 12.83 33.95Q14.57 31.40 17.87 29.90Q21.17 28.40 25.79 28.40L25.79 28.40Q29.51 28.40 32.30 29.39Q35.09 30.38 36.95 32.03Q38.81 33.68 39.77 35.57Q40.73 37.46 40.79 39.26L40.79 39.26Q40.79 39.68 40.49 40.07Q40.19 40.46 39.53 40.46L39.53 40.46L36.35 40.46Q35.93 40.46 35.48 40.22Q35.03 39.98 34.79 39.32L34.79 39.32Q34.43 36.86 32.03 35.18Q29.63 33.50 25.79 33.50L25.79 33.50Q21.89 33.50 19.46 35Q17.03 36.50 17.03 39.68L17.03 39.68Q17.03 41.72 18.17 43.07Q19.31 44.42 21.77 45.44Q24.23 46.46 28.19 47.60L28.19 47.60Q32.99 48.92 36.05 50.39Q39.11 51.86 40.58 54.05Q42.05 56.24 42.05 59.66L42.05 59.66Q42.05 63.44 40.07 66.11Q38.09 68.78 34.52 70.19Q30.95 71.60 26.09 71.60ZM59.33 71L56.99 71Q56.21 71 55.76 70.58Q55.31 70.16 55.13 69.38L55.13 69.38L47.39 30.86Q47.33 30.62 47.33 30.44Q47.33 30.26 47.33 30.20L47.33 30.20Q47.33 29.72 47.69 29.36Q48.05 29 48.53 29L48.53 29L51.65 29Q52.91 29 53.09 30.02L53.09 30.02L59.21 60.98L65.69 39.74Q65.87 39.20 66.32 38.75Q66.77 38.30 67.61 38.30L67.61 38.30L69.83 38.30Q70.73 38.30 71.15 38.75Q71.57 39.20 71.69 39.74L71.69 39.74L78.23 60.98L84.29 30.02Q84.47 29 85.79 29L85.79 29L88.91 29Q89.39 29 89.75 29.36Q90.11 29.72 90.11 30.20L90.11 30.20Q90.11 30.26 90.08 30.44Q90.05 30.62 90.05 30.86L90.05 30.86L82.31 69.38Q82.13 70.16 81.68 70.58Q81.23 71 80.45 71L80.45 71L78.11 71Q77.27 71 76.79 70.58Q76.31 70.16 76.13 69.50L76.13 69.50L68.69 46.64L61.31 69.50Q61.07 70.16 60.62 70.58Q60.17 71 59.33 71L59.33 71Z"></path></svg>